<svg xmlns="http://www.w3.org/2000/svg" xmlns:xlink="http://www.w3.org/1999/xlink" contentStyleType="text/css" height="697px" preserveAspectRatio="none" style="width:5883px;height:697px;background:#FFFFFF;" version="1.1" viewBox="0 0 5883 697" width="5883px" zoomAndPan="magnify"><defs/><g><ellipse cx="2598.875" cy="20" fill="#222222" rx="10" ry="10" style="stroke:#222222;stroke-width:1.0;"/><rect fill="#F1F1F1" height="33.9688" rx="12.5" ry="12.5" style="stroke:#181818;stroke-width:0.5;" width="191" x="2503.375" y="98.4023"/><text fill="#000000" font-family="sans-serif" font-size="12" lengthAdjust="spacing" textLength="171" x="2513.375" y="119.541">redirect to duckduckgo.com</text><ellipse cx="2598.875" cy="171.8867" fill="none" rx="11" ry="11" style="stroke:#222222;stroke-width:1.0;"/><ellipse cx="2598.875" cy="171.8867" fill="#222222" rx="6" ry="6" style="stroke:#222222;stroke-width:1.0;"/><polygon fill="#F1F1F1" points="2586.875,50,2610.875,50,2622.875,62,2610.875,74,2586.875,74,2574.875,62,2586.875,50" style="stroke:#181818;stroke-width:0.5;"/><text fill="#000000" font-family="sans-serif" font-size="11" lengthAdjust="spacing" textLength="21" x="2602.875" y="84.2104">yes</text><text fill="#000000" font-family="sans-serif" font-size="11" lengthAdjust="spacing" textLength="13" x="2592.375" y="65.8081">q?</text><text fill="#000000" font-family="sans-serif" font-size="11" lengthAdjust="spacing" textLength="14" x="2622.875" y="59.4058">no</text><polygon fill="#F1F1F1" points="2423.375,224.8867,2774.375,224.8867,2786.375,236.8867,2774.375,248.8867,2423.375,248.8867,2411.375,236.8867,2423.375,224.8867" style="stroke:#181818;stroke-width:0.5;"/><text fill="#000000" font-family="sans-serif" font-size="11" lengthAdjust="spacing" textLength="351" x="2423.375" y="240.6948">first path segment after base, named requestedLang isLang?</text><text fill="#000000" font-family="sans-serif" font-size="11" lengthAdjust="spacing" textLength="21" x="2390.375" y="234.2925">yes</text><text fill="#000000" font-family="sans-serif" font-size="11" lengthAdjust="spacing" textLength="14" x="2786.375" y="234.2925">no</text><polygon fill="#F1F1F1" points="1121.5,258.8867,1185.5,258.8867,1197.5,270.8867,1185.5,282.8867,1121.5,282.8867,1109.5,270.8867,1121.5,258.8867" style="stroke:#181818;stroke-width:0.5;"/><text fill="#000000" font-family="sans-serif" font-size="11" lengthAdjust="spacing" textLength="64" x="1121.5" y="274.6948">pageType?</text><polygon fill="#F1F1F1" points="632.25,318.4961,946.25,318.4961,958.25,330.4961,946.25,342.4961,632.25,342.4961,620.25,330.4961,632.25,318.4961" style="stroke:#181818;stroke-width:0.5;"/><text fill="#000000" font-family="sans-serif" font-size="11" lengthAdjust="spacing" textLength="314" x="632.25" y="334.3042">fetch supposedSupportedLangs getting at least one ok</text><text fill="#000000" font-family="sans-serif" font-size="11" lengthAdjust="spacing" textLength="21" x="599.25" y="327.9019">yes</text><text fill="#000000" font-family="sans-serif" font-size="11" lengthAdjust="spacing" textLength="14" x="958.25" y="327.9019">no</text><rect fill="#F1F1F1" height="33.9688" rx="12.5" ry="12.5" style="stroke:#181818;stroke-width:0.5;" width="207" x="294.5" y="352.4961"/><text fill="#000000" font-family="sans-serif" font-size="12" lengthAdjust="spacing" textLength="187" x="304.5" y="373.6348">set var supportedLangsOfPage</text><rect fill="#F1F1F1" height="33.9688" rx="12.5" ry="12.5" style="stroke:#181818;stroke-width:0.5;" width="352" x="222" y="421.4648"/><text fill="#000000" font-family="sans-serif" font-size="12" lengthAdjust="spacing" textLength="332" x="232" y="442.6035">tell user "we don't have that content in requestedLang"</text><polygon fill="#F1F1F1" points="267.5,490.4336,528.5,490.4336,540.5,502.4336,528.5,514.4336,267.5,514.4336,255.5,502.4336,267.5,490.4336" style="stroke:#181818;stroke-width:0.5;"/><text fill="#000000" font-family="sans-serif" font-size="11" lengthAdjust="spacing" textLength="261" x="267.5" y="506.2417">supposedSupportedLangs has requestedLang</text><text fill="#000000" font-family="sans-serif" font-size="11" lengthAdjust="spacing" textLength="21" x="234.5" y="499.8394">yes</text><text fill="#000000" font-family="sans-serif" font-size="11" lengthAdjust="spacing" textLength="14" x="540.5" y="499.8394">no</text><rect fill="#F1F1F1" height="33.9688" rx="12.5" ry="12.5" style="stroke:#181818;stroke-width:0.5;" width="377" x="11" y="524.4336"/><text fill="#000000" font-family="sans-serif" font-size="12" lengthAdjust="spacing" textLength="357" x="21" y="545.5723">suggest redirecting to one of supportedLangs of that page</text><ellipse cx="199.5" cy="589.4023" fill="none" rx="11" ry="11" style="stroke:#222222;stroke-width:1.0;"/><ellipse cx="199.5" cy="589.4023" fill="#222222" rx="6" ry="6" style="stroke:#222222;stroke-width:1.0;"/><rect fill="#F1F1F1" height="33.9688" rx="12.5" ry="12.5" style="stroke:#181818;stroke-width:0.5;" width="271" x="461" y="524.4336"/><text fill="#000000" font-family="sans-serif" font-size="12" lengthAdjust="spacing" textLength="251" x="471" y="545.5723">tell user we don't support requestedLang</text><rect fill="#F1F1F1" height="33.9688" rx="12.5" ry="12.5" style="stroke:#181818;stroke-width:0.5;" width="377" x="408" y="578.4023"/><text fill="#000000" font-family="sans-serif" font-size="12" lengthAdjust="spacing" textLength="357" x="418" y="599.541">suggest redirecting to one of supportedLangs of that page</text><ellipse cx="596.5" cy="643.3711" fill="none" rx="11" ry="11" style="stroke:#222222;stroke-width:1.0;"/><ellipse cx="596.5" cy="643.3711" fill="#222222" rx="6" ry="6" style="stroke:#222222;stroke-width:1.0;"/><rect fill="#F1F1F1" height="33.9688" rx="12.5" ry="12.5" style="stroke:#181818;stroke-width:0.5;" width="233" x="1064" y="352.4961"/><text fill="#000000" font-family="sans-serif" font-size="12" lengthAdjust="spacing" textLength="213" x="1074" y="373.6348">tell user we don't have that content</text><polygon fill="#F1F1F1" points="1050,421.4648,1311,421.4648,1323,433.4648,1311,445.4648,1050,445.4648,1038,433.4648,1050,421.4648" style="stroke:#181818;stroke-width:0.5;"/><text fill="#000000" font-family="sans-serif" font-size="11" lengthAdjust="spacing" textLength="261" x="1050" y="437.2729">supposedSupportedLangs has requestedLang</text><text fill="#000000" font-family="sans-serif" font-size="11" lengthAdjust="spacing" textLength="21" x="1017" y="430.8706">yes</text><text fill="#000000" font-family="sans-serif" font-size="11" lengthAdjust="spacing" textLength="14" x="1323" y="430.8706">no</text><rect fill="#F1F1F1" height="33.9688" rx="12.5" ry="12.5" style="stroke:#181818;stroke-width:0.5;" width="333" x="825" y="455.4648"/><text fill="#000000" font-family="sans-serif" font-size="12" lengthAdjust="spacing" textLength="313" x="835" y="476.6035">suggest redirecting to homepage in requestedLang</text><ellipse cx="991.5" cy="535.4336" fill="none" rx="11" ry="11" style="stroke:#222222;stroke-width:1.0;"/><ellipse cx="991.5" cy="535.4336" fill="#222222" rx="6" ry="6" style="stroke:#222222;stroke-width:1.0;"/><rect fill="#F1F1F1" height="33.9688" rx="12.5" ry="12.5" style="stroke:#181818;stroke-width:0.5;" width="271" x="1234" y="455.4648"/><text fill="#000000" font-family="sans-serif" font-size="12" lengthAdjust="spacing" textLength="251" x="1244" y="476.6035">tell user we don't support requestedLang</text><rect fill="#F1F1F1" height="33.9688" rx="12.5" ry="12.5" style="stroke:#181818;stroke-width:0.5;" width="383" x="1178" y="524.4336"/><text fill="#000000" font-family="sans-serif" font-size="12" lengthAdjust="spacing" textLength="363" x="1188" y="545.5723">suggest redirecting to homepage in one of supportedLangs</text><ellipse cx="1369.5" cy="589.4023" fill="none" rx="11" ry="11" style="stroke:#222222;stroke-width:1.0;"/><ellipse cx="1369.5" cy="589.4023" fill="#222222" rx="6" ry="6" style="stroke:#222222;stroke-width:1.0;"/><rect fill="#F1F1F1" height="33.9688" rx="12.5" ry="12.5" style="stroke:#181818;stroke-width:0.5;" width="715" x="1571" y="318.4961"/><text fill="#000000" font-family="sans-serif" font-size="12" lengthAdjust="spacing" textLength="695" x="1581" y="339.6348">//we've already checked if the page is 404. Since it's not 404, that means we're at the correct place, nothing to do</text><ellipse cx="1928.5" cy="398.4648" fill="none" rx="11" ry="11" style="stroke:#222222;stroke-width:1.0;"/><ellipse cx="1928.5" cy="398.4648" fill="#222222" rx="6" ry="6" style="stroke:#222222;stroke-width:1.0;"/><polygon fill="#F1F1F1" points="4032.25,258.8867,4096.25,258.8867,4108.25,270.8867,4096.25,282.8867,4032.25,282.8867,4020.25,270.8867,4032.25,258.8867" style="stroke:#181818;stroke-width:0.5;"/><text fill="#000000" font-family="sans-serif" font-size="11" lengthAdjust="spacing" textLength="64" x="4032.25" y="274.6948">pageType?</text><polygon fill="#F1F1F1" points="2834.5,318.4961,3148.5,318.4961,3160.5,330.4961,3148.5,342.4961,2834.5,342.4961,2822.5,330.4961,2834.5,318.4961" style="stroke:#181818;stroke-width:0.5;"/><text fill="#000000" font-family="sans-serif" font-size="11" lengthAdjust="spacing" textLength="314" x="2834.5" y="334.3042">fetch supposedSupportedLangs getting at least one ok</text><text fill="#000000" font-family="sans-serif" font-size="11" lengthAdjust="spacing" textLength="21" x="2801.5" y="327.9019">yes</text><text fill="#000000" font-family="sans-serif" font-size="11" lengthAdjust="spacing" textLength="14" x="3160.5" y="327.9019">no</text><polygon fill="#F1F1F1" points="2426,352.4961,2782,352.4961,2794,364.4961,2782,376.4961,2426,376.4961,2414,364.4961,2426,352.4961" style="stroke:#181818;stroke-width:0.5;"/><text fill="#000000" font-family="sans-serif" font-size="11" lengthAdjust="spacing" textLength="356" x="2426" y="368.3042">supposedSupportedLangs and navigator.language has overlap</text><text fill="#000000" font-family="sans-serif" font-size="11" lengthAdjust="spacing" textLength="21" x="2393" y="361.9019">yes</text><text fill="#000000" font-family="sans-serif" font-size="11" lengthAdjust="spacing" textLength="14" x="2794" y="361.9019">no</text><rect fill="#F1F1F1" height="33.9688" rx="12.5" ry="12.5" style="stroke:#181818;stroke-width:0.5;" width="216" x="2296" y="386.4961"/><text fill="#000000" font-family="sans-serif" font-size="12" lengthAdjust="spacing" textLength="196" x="2306" y="407.6348">redirect to firstLang of that page</text><ellipse cx="2404" cy="466.4648" fill="none" rx="11" ry="11" style="stroke:#222222;stroke-width:1.0;"/><ellipse cx="2404" cy="466.4648" fill="#222222" rx="6" ry="6" style="stroke:#222222;stroke-width:1.0;"/><rect fill="#F1F1F1" height="33.9688" rx="12.5" ry="12.5" style="stroke:#181818;stroke-width:0.5;" width="335" x="2636.5" y="386.4961"/><text fill="#000000" font-family="sans-serif" font-size="12" lengthAdjust="spacing" textLength="315" x="2646.5" y="407.6348">tell user we don't support any of navigator.language</text><rect fill="#F1F1F1" height="33.9688" rx="12.5" ry="12.5" style="stroke:#181818;stroke-width:0.5;" width="377" x="2615.5" y="455.4648"/><text fill="#000000" font-family="sans-serif" font-size="12" lengthAdjust="spacing" textLength="357" x="2625.5" y="476.6035">suggest redirecting to one of supportedLangs of that page</text><ellipse cx="2804" cy="535.4336" fill="none" rx="11" ry="11" style="stroke:#222222;stroke-width:1.0;"/><ellipse cx="2804" cy="535.4336" fill="#222222" rx="6" ry="6" style="stroke:#222222;stroke-width:1.0;"/><rect fill="#F1F1F1" height="33.9688" rx="12.5" ry="12.5" style="stroke:#181818;stroke-width:0.5;" width="233" x="3262.5" y="352.4961"/><text fill="#000000" font-family="sans-serif" font-size="12" lengthAdjust="spacing" textLength="213" x="3272.5" y="373.6348">tell user we don't have that content</text><polygon fill="#F1F1F1" points="3201,421.4648,3557,421.4648,3569,433.4648,3557,445.4648,3201,445.4648,3189,433.4648,3201,421.4648" style="stroke:#181818;stroke-width:0.5;"/><text fill="#000000" font-family="sans-serif" font-size="11" lengthAdjust="spacing" textLength="356" x="3201" y="437.2729">supposedSupportedLangs and navigator.language has overlap</text><text fill="#000000" font-family="sans-serif" font-size="11" lengthAdjust="spacing" textLength="21" x="3168" y="430.8706">yes</text><text fill="#000000" font-family="sans-serif" font-size="11" lengthAdjust="spacing" textLength="14" x="3569" y="430.8706">no</text><rect fill="#F1F1F1" height="33.9688" rx="12.5" ry="12.5" style="stroke:#181818;stroke-width:0.5;" width="293" x="3032.5" y="455.4648"/><text fill="#000000" font-family="sans-serif" font-size="12" lengthAdjust="spacing" textLength="273" x="3042.5" y="476.6035">suggest redirecting to homepage in firstLang</text><ellipse cx="3179" cy="535.4336" fill="none" rx="11" ry="11" style="stroke:#222222;stroke-width:1.0;"/><ellipse cx="3179" cy="535.4336" fill="#222222" rx="6" ry="6" style="stroke:#222222;stroke-width:1.0;"/><rect fill="#F1F1F1" height="33.9688" rx="12.5" ry="12.5" style="stroke:#181818;stroke-width:0.5;" width="335" x="3411.5" y="455.4648"/><text fill="#000000" font-family="sans-serif" font-size="12" lengthAdjust="spacing" textLength="315" x="3421.5" y="476.6035">tell user we don't support any of navigator.language</text><rect fill="#F1F1F1" height="33.9688" rx="12.5" ry="12.5" style="stroke:#181818;stroke-width:0.5;" width="383" x="3387.5" y="524.4336"/><text fill="#000000" font-family="sans-serif" font-size="12" lengthAdjust="spacing" textLength="363" x="3397.5" y="545.5723">suggest redirecting to homepage in one of supportedLangs</text><ellipse cx="3579" cy="589.4023" fill="none" rx="11" ry="11" style="stroke:#222222;stroke-width:1.0;"/><ellipse cx="3579" cy="589.4023" fill="#222222" rx="6" ry="6" style="stroke:#222222;stroke-width:1.0;"/><polygon fill="#F1F1F1" points="4654.875,318.4961,4903.875,318.4961,4915.875,330.4961,4903.875,342.4961,4654.875,342.4961,4642.875,330.4961,4654.875,318.4961" style="stroke:#181818;stroke-width:0.5;"/><text fill="#000000" font-family="sans-serif" font-size="11" lengthAdjust="spacing" textLength="249" x="4654.875" y="334.3042">sessionStorage redirectedByLangMatching?</text><text fill="#000000" font-family="sans-serif" font-size="11" lengthAdjust="spacing" textLength="21" x="4621.875" y="327.9019">yes</text><text fill="#000000" font-family="sans-serif" font-size="11" lengthAdjust="spacing" textLength="14" x="4915.875" y="327.9019">no</text><rect fill="#F1F1F1" height="33.9688" rx="12.5" ry="12.5" style="stroke:#181818;stroke-width:0.5;" width="1037" x="3780.5" y="352.4961"/><text fill="#000000" font-family="sans-serif" font-size="12" lengthAdjust="spacing" textLength="1017" x="3790.5" y="373.6348">that means user had already been redirected by langMatching from home but manually switched back, don't bother them with another redirecting by langMatching again</text><rect fill="#F1F1F1" height="33.9688" rx="12.5" ry="12.5" style="stroke:#181818;stroke-width:0.5;" width="100" x="4249" y="421.4648"/><text fill="#000000" font-family="sans-serif" font-size="12" lengthAdjust="spacing" textLength="80" x="4259" y="442.6035">nothing to do</text><ellipse cx="4299" cy="501.4336" fill="none" rx="11" ry="11" style="stroke:#222222;stroke-width:1.0;"/><ellipse cx="4299" cy="501.4336" fill="#222222" rx="6" ry="6" style="stroke:#222222;stroke-width:1.0;"/><polygon fill="#F1F1F1" points="5081.75,352.4961,5437.75,352.4961,5449.75,364.4961,5437.75,376.4961,5081.75,376.4961,5069.75,364.4961,5081.75,352.4961" style="stroke:#181818;stroke-width:0.5;"/><text fill="#000000" font-family="sans-serif" font-size="11" lengthAdjust="spacing" textLength="356" x="5081.75" y="368.3042">supposedSupportedLangs and navigator.language has overlap</text><text fill="#000000" font-family="sans-serif" font-size="11" lengthAdjust="spacing" textLength="21" x="5048.75" y="361.9019">yes</text><text fill="#000000" font-family="sans-serif" font-size="11" lengthAdjust="spacing" textLength="14" x="5449.75" y="361.9019">no</text><rect fill="#F1F1F1" height="47.9375" rx="12.5" ry="12.5" style="stroke:#181818;stroke-width:0.5;" width="302" x="4847.5" y="386.4961"/><text fill="#000000" font-family="sans-serif" font-size="12" lengthAdjust="spacing" textLength="282" x="4857.5" y="407.6348">set sessionStorage redirectedByLangMatching</text><text fill="#000000" font-family="sans-serif" font-size="12" lengthAdjust="spacing" textLength="200" x="4857.5" y="421.6035">:redirect to firstLang of that page</text><ellipse cx="4998.5" cy="480.4336" fill="none" rx="11" ry="11" style="stroke:#222222;stroke-width:1.0;"/><ellipse cx="4998.5" cy="480.4336" fill="#222222" rx="6" ry="6" style="stroke:#222222;stroke-width:1.0;"/><rect fill="#F1F1F1" height="33.9688" rx="12.5" ry="12.5" style="stroke:#181818;stroke-width:0.5;" width="703" x="5169.5" y="386.4961"/><text fill="#000000" font-family="sans-serif" font-size="12" lengthAdjust="spacing" textLength="683" x="5179.5" y="407.6348">no overlap of language we support and user requested. we can warn user of that but that maybe too obstructive</text><rect fill="#F1F1F1" height="33.9688" rx="12.5" ry="12.5" style="stroke:#181818;stroke-width:0.5;" width="100" x="5471" y="455.4648"/><text fill="#000000" font-family="sans-serif" font-size="12" lengthAdjust="spacing" textLength="80" x="5481" y="476.6035">nothing to do</text><ellipse cx="5521" cy="535.4336" fill="none" rx="11" ry="11" style="stroke:#222222;stroke-width:1.0;"/><ellipse cx="5521" cy="535.4336" fill="#222222" rx="6" ry="6" style="stroke:#222222;stroke-width:1.0;"/><ellipse cx="2598.875" cy="675.3711" fill="none" rx="11" ry="11" style="stroke:#222222;stroke-width:1.0;"/><ellipse cx="2598.875" cy="675.3711" fill="#222222" rx="6" ry="6" style="stroke:#222222;stroke-width:1.0;"/><line style="stroke:#181818;stroke-width:1.0;" x1="2598.875" x2="2598.875" y1="132.3711" y2="160.8867"/><polygon fill="#181818" points="2594.875,150.8867,2598.875,160.8867,2602.875,150.8867,2598.875,154.8867" style="stroke:#181818;stroke-width:1.0;"/><line style="stroke:#181818;stroke-width:1.0;" x1="2598.875" x2="2598.875" y1="74" y2="98.4023"/><polygon fill="#181818" points="2594.875,88.4023,2598.875,98.4023,2602.875,88.4023,2598.875,92.4023" style="stroke:#181818;stroke-width:1.0;"/><line style="stroke:#181818;stroke-width:1.0;" x1="2622.875" x2="2704.375" y1="62" y2="62"/><polygon fill="#181818" points="2700.375,130.8867,2704.375,140.8867,2708.375,130.8867,2704.375,134.8867" style="stroke:#181818;stroke-width:1.0;"/><line style="stroke:#181818;stroke-width:1.0;" x1="2704.375" x2="2704.375" y1="62" y2="204.8867"/><line style="stroke:#181818;stroke-width:1.0;" x1="2704.375" x2="2598.875" y1="204.8867" y2="204.8867"/><line style="stroke:#181818;stroke-width:1.0;" x1="2598.875" x2="2598.875" y1="204.8867" y2="224.8867"/><polygon fill="#181818" points="2594.875,214.8867,2598.875,224.8867,2602.875,214.8867,2598.875,218.8867" style="stroke:#181818;stroke-width:1.0;"/><line style="stroke:#181818;stroke-width:1.0;" x1="2598.875" x2="2598.875" y1="30" y2="50"/><polygon fill="#181818" points="2594.875,40,2598.875,50,2602.875,40,2598.875,44" style="stroke:#181818;stroke-width:1.0;"/><line style="stroke:#181818;stroke-width:1.0;" x1="398" x2="398" y1="386.4648" y2="421.4648"/><polygon fill="#181818" points="394,411.4648,398,421.4648,402,411.4648,398,415.4648" style="stroke:#181818;stroke-width:1.0;"/><line style="stroke:#181818;stroke-width:1.0;" x1="199.5" x2="199.5" y1="558.4023" y2="578.4023"/><polygon fill="#181818" points="195.5,568.4023,199.5,578.4023,203.5,568.4023,199.5,572.4023" style="stroke:#181818;stroke-width:1.0;"/><line style="stroke:#181818;stroke-width:1.0;" x1="596.5" x2="596.5" y1="558.4023" y2="578.4023"/><polygon fill="#181818" points="592.5,568.4023,596.5,578.4023,600.5,568.4023,596.5,572.4023" style="stroke:#181818;stroke-width:1.0;"/><line style="stroke:#181818;stroke-width:1.0;" x1="596.5" x2="596.5" y1="612.3711" y2="632.3711"/><polygon fill="#181818" points="592.5,622.3711,596.5,632.3711,600.5,622.3711,596.5,626.3711" style="stroke:#181818;stroke-width:1.0;"/><line style="stroke:#181818;stroke-width:1.0;" x1="255.5" x2="199.5" y1="502.4336" y2="502.4336"/><line style="stroke:#181818;stroke-width:1.0;" x1="199.5" x2="199.5" y1="502.4336" y2="524.4336"/><polygon fill="#181818" points="195.5,514.4336,199.5,524.4336,203.5,514.4336,199.5,518.4336" style="stroke:#181818;stroke-width:1.0;"/><line style="stroke:#181818;stroke-width:1.0;" x1="540.5" x2="596.5" y1="502.4336" y2="502.4336"/><line style="stroke:#181818;stroke-width:1.0;" x1="596.5" x2="596.5" y1="502.4336" y2="524.4336"/><polygon fill="#181818" points="592.5,514.4336,596.5,524.4336,600.5,514.4336,596.5,518.4336" style="stroke:#181818;stroke-width:1.0;"/><line style="stroke:#181818;stroke-width:1.0;" x1="398" x2="398" y1="455.4336" y2="490.4336"/><polygon fill="#181818" points="394,480.4336,398,490.4336,402,480.4336,398,484.4336" style="stroke:#181818;stroke-width:1.0;"/><line style="stroke:#181818;stroke-width:1.0;" x1="991.5" x2="991.5" y1="489.4336" y2="524.4336"/><polygon fill="#181818" points="987.5,514.4336,991.5,524.4336,995.5,514.4336,991.5,518.4336" style="stroke:#181818;stroke-width:1.0;"/><line style="stroke:#181818;stroke-width:1.0;" x1="1369.5" x2="1369.5" y1="489.4336" y2="524.4336"/><polygon fill="#181818" points="1365.5,514.4336,1369.5,524.4336,1373.5,514.4336,1369.5,518.4336" style="stroke:#181818;stroke-width:1.0;"/><line style="stroke:#181818;stroke-width:1.0;" x1="1369.5" x2="1369.5" y1="558.4023" y2="578.4023"/><polygon fill="#181818" points="1365.5,568.4023,1369.5,578.4023,1373.5,568.4023,1369.5,572.4023" style="stroke:#181818;stroke-width:1.0;"/><line style="stroke:#181818;stroke-width:1.0;" x1="1038" x2="991.5" y1="433.4648" y2="433.4648"/><line style="stroke:#181818;stroke-width:1.0;" x1="991.5" x2="991.5" y1="433.4648" y2="455.4648"/><polygon fill="#181818" points="987.5,445.4648,991.5,455.4648,995.5,445.4648,991.5,449.4648" style="stroke:#181818;stroke-width:1.0;"/><line style="stroke:#181818;stroke-width:1.0;" x1="1323" x2="1369.5" y1="433.4648" y2="433.4648"/><line style="stroke:#181818;stroke-width:1.0;" x1="1369.5" x2="1369.5" y1="433.4648" y2="455.4648"/><polygon fill="#181818" points="1365.5,445.4648,1369.5,455.4648,1373.5,445.4648,1369.5,449.4648" style="stroke:#181818;stroke-width:1.0;"/><line style="stroke:#181818;stroke-width:1.0;" x1="1180.5" x2="1180.5" y1="386.4648" y2="421.4648"/><polygon fill="#181818" points="1176.5,411.4648,1180.5,421.4648,1184.5,411.4648,1180.5,415.4648" style="stroke:#181818;stroke-width:1.0;"/><line style="stroke:#181818;stroke-width:1.0;" x1="620.25" x2="398" y1="330.4961" y2="330.4961"/><line style="stroke:#181818;stroke-width:1.0;" x1="398" x2="398" y1="330.4961" y2="352.4961"/><polygon fill="#181818" points="394,342.4961,398,352.4961,402,342.4961,398,346.4961" style="stroke:#181818;stroke-width:1.0;"/><line style="stroke:#181818;stroke-width:1.0;" x1="958.25" x2="1180.5" y1="330.4961" y2="330.4961"/><line style="stroke:#181818;stroke-width:1.0;" x1="1180.5" x2="1180.5" y1="330.4961" y2="352.4961"/><polygon fill="#181818" points="1176.5,342.4961,1180.5,352.4961,1184.5,342.4961,1180.5,346.4961" style="stroke:#181818;stroke-width:1.0;"/><line style="stroke:#181818;stroke-width:1.0;" x1="1928.5" x2="1928.5" y1="352.4648" y2="387.4648"/><polygon fill="#181818" points="1924.5,377.4648,1928.5,387.4648,1932.5,377.4648,1928.5,381.4648" style="stroke:#181818;stroke-width:1.0;"/><line style="stroke:#181818;stroke-width:1.0;" x1="1109.5" x2="789.25" y1="270.8867" y2="270.8867"/><line style="stroke:#181818;stroke-width:1.0;" x1="789.25" x2="789.25" y1="270.8867" y2="318.4961"/><polygon fill="#181818" points="785.25,308.4961,789.25,318.4961,793.25,308.4961,789.25,312.4961" style="stroke:#181818;stroke-width:1.0;"/><text fill="#000000" font-family="sans-serif" font-size="11" lengthAdjust="spacing" textLength="21" x="789.25" y="298.4995">404</text><line style="stroke:#181818;stroke-width:1.0;" x1="1197.5" x2="1928.5" y1="270.8867" y2="270.8867"/><line style="stroke:#181818;stroke-width:1.0;" x1="1928.5" x2="1928.5" y1="270.8867" y2="318.4961"/><polygon fill="#181818" points="1924.5,308.4961,1928.5,318.4961,1932.5,308.4961,1928.5,312.4961" style="stroke:#181818;stroke-width:1.0;"/><text fill="#000000" font-family="sans-serif" font-size="11" lengthAdjust="spacing" textLength="80" x="1928.5" y="298.4995">home, default</text><line style="stroke:#181818;stroke-width:1.0;" x1="2404" x2="2404" y1="420.4648" y2="455.4648"/><polygon fill="#181818" points="2400,445.4648,2404,455.4648,2408,445.4648,2404,449.4648" style="stroke:#181818;stroke-width:1.0;"/><line style="stroke:#181818;stroke-width:1.0;" x1="2804" x2="2804" y1="420.4648" y2="455.4648"/><polygon fill="#181818" points="2800,445.4648,2804,455.4648,2808,445.4648,2804,449.4648" style="stroke:#181818;stroke-width:1.0;"/><line style="stroke:#181818;stroke-width:1.0;" x1="2804" x2="2804" y1="489.4336" y2="524.4336"/><polygon fill="#181818" points="2800,514.4336,2804,524.4336,2808,514.4336,2804,518.4336" style="stroke:#181818;stroke-width:1.0;"/><line style="stroke:#181818;stroke-width:1.0;" x1="2414" x2="2404" y1="364.4961" y2="364.4961"/><line style="stroke:#181818;stroke-width:1.0;" x1="2404" x2="2404" y1="364.4961" y2="386.4961"/><polygon fill="#181818" points="2400,376.4961,2404,386.4961,2408,376.4961,2404,380.4961" style="stroke:#181818;stroke-width:1.0;"/><line style="stroke:#181818;stroke-width:1.0;" x1="2794" x2="2804" y1="364.4961" y2="364.4961"/><line style="stroke:#181818;stroke-width:1.0;" x1="2804" x2="2804" y1="364.4961" y2="386.4961"/><polygon fill="#181818" points="2800,376.4961,2804,386.4961,2808,376.4961,2804,380.4961" style="stroke:#181818;stroke-width:1.0;"/><line style="stroke:#181818;stroke-width:1.0;" x1="3179" x2="3179" y1="489.4336" y2="524.4336"/><polygon fill="#181818" points="3175,514.4336,3179,524.4336,3183,514.4336,3179,518.4336" style="stroke:#181818;stroke-width:1.0;"/><line style="stroke:#181818;stroke-width:1.0;" x1="3579" x2="3579" y1="489.4336" y2="524.4336"/><polygon fill="#181818" points="3575,514.4336,3579,524.4336,3583,514.4336,3579,518.4336" style="stroke:#181818;stroke-width:1.0;"/><line style="stroke:#181818;stroke-width:1.0;" x1="3579" x2="3579" y1="558.4023" y2="578.4023"/><polygon fill="#181818" points="3575,568.4023,3579,578.4023,3583,568.4023,3579,572.4023" style="stroke:#181818;stroke-width:1.0;"/><line style="stroke:#181818;stroke-width:1.0;" x1="3189" x2="3179" y1="433.4648" y2="433.4648"/><line style="stroke:#181818;stroke-width:1.0;" x1="3179" x2="3179" y1="433.4648" y2="455.4648"/><polygon fill="#181818" points="3175,445.4648,3179,455.4648,3183,445.4648,3179,449.4648" style="stroke:#181818;stroke-width:1.0;"/><line style="stroke:#181818;stroke-width:1.0;" x1="3569" x2="3579" y1="433.4648" y2="433.4648"/><line style="stroke:#181818;stroke-width:1.0;" x1="3579" x2="3579" y1="433.4648" y2="455.4648"/><polygon fill="#181818" points="3575,445.4648,3579,455.4648,3583,445.4648,3579,449.4648" style="stroke:#181818;stroke-width:1.0;"/><line style="stroke:#181818;stroke-width:1.0;" x1="3379" x2="3379" y1="386.4648" y2="421.4648"/><polygon fill="#181818" points="3375,411.4648,3379,421.4648,3383,411.4648,3379,415.4648" style="stroke:#181818;stroke-width:1.0;"/><line style="stroke:#181818;stroke-width:1.0;" x1="2822.5" x2="2604" y1="330.4961" y2="330.4961"/><line style="stroke:#181818;stroke-width:1.0;" x1="2604" x2="2604" y1="330.4961" y2="352.4961"/><polygon fill="#181818" points="2600,342.4961,2604,352.4961,2608,342.4961,2604,346.4961" style="stroke:#181818;stroke-width:1.0;"/><line style="stroke:#181818;stroke-width:1.0;" x1="3160.5" x2="3379" y1="330.4961" y2="330.4961"/><line style="stroke:#181818;stroke-width:1.0;" x1="3379" x2="3379" y1="330.4961" y2="352.4961"/><polygon fill="#181818" points="3375,342.4961,3379,352.4961,3383,342.4961,3379,346.4961" style="stroke:#181818;stroke-width:1.0;"/><line style="stroke:#181818;stroke-width:1.0;" x1="4299" x2="4299" y1="386.4648" y2="421.4648"/><polygon fill="#181818" points="4295,411.4648,4299,421.4648,4303,411.4648,4299,415.4648" style="stroke:#181818;stroke-width:1.0;"/><line style="stroke:#181818;stroke-width:1.0;" x1="4299" x2="4299" y1="455.4336" y2="490.4336"/><polygon fill="#181818" points="4295,480.4336,4299,490.4336,4303,480.4336,4299,484.4336" style="stroke:#181818;stroke-width:1.0;"/><line style="stroke:#181818;stroke-width:1.0;" x1="4998.5" x2="4998.5" y1="434.4336" y2="469.4336"/><polygon fill="#181818" points="4994.5,459.4336,4998.5,469.4336,5002.5,459.4336,4998.5,463.4336" style="stroke:#181818;stroke-width:1.0;"/><line style="stroke:#181818;stroke-width:1.0;" x1="5521" x2="5521" y1="420.4648" y2="455.4648"/><polygon fill="#181818" points="5517,445.4648,5521,455.4648,5525,445.4648,5521,449.4648" style="stroke:#181818;stroke-width:1.0;"/><line style="stroke:#181818;stroke-width:1.0;" x1="5521" x2="5521" y1="489.4336" y2="524.4336"/><polygon fill="#181818" points="5517,514.4336,5521,524.4336,5525,514.4336,5521,518.4336" style="stroke:#181818;stroke-width:1.0;"/><line style="stroke:#181818;stroke-width:1.0;" x1="5069.75" x2="4998.5" y1="364.4961" y2="364.4961"/><line style="stroke:#181818;stroke-width:1.0;" x1="4998.5" x2="4998.5" y1="364.4961" y2="386.4961"/><polygon fill="#181818" points="4994.5,376.4961,4998.5,386.4961,5002.5,376.4961,4998.5,380.4961" style="stroke:#181818;stroke-width:1.0;"/><line style="stroke:#181818;stroke-width:1.0;" x1="5449.75" x2="5521" y1="364.4961" y2="364.4961"/><line style="stroke:#181818;stroke-width:1.0;" x1="5521" x2="5521" y1="364.4961" y2="386.4961"/><polygon fill="#181818" points="5517,376.4961,5521,386.4961,5525,376.4961,5521,380.4961" style="stroke:#181818;stroke-width:1.0;"/><line style="stroke:#181818;stroke-width:1.0;" x1="4642.875" x2="4299" y1="330.4961" y2="330.4961"/><line style="stroke:#181818;stroke-width:1.0;" x1="4299" x2="4299" y1="330.4961" y2="352.4961"/><polygon fill="#181818" points="4295,342.4961,4299,352.4961,4303,342.4961,4299,346.4961" style="stroke:#181818;stroke-width:1.0;"/><line style="stroke:#181818;stroke-width:1.0;" x1="4915.875" x2="5259.75" y1="330.4961" y2="330.4961"/><line style="stroke:#181818;stroke-width:1.0;" x1="5259.75" x2="5259.75" y1="330.4961" y2="352.4961"/><polygon fill="#181818" points="5255.75,342.4961,5259.75,352.4961,5263.75,342.4961,5259.75,346.4961" style="stroke:#181818;stroke-width:1.0;"/><line style="stroke:#181818;stroke-width:1.0;" x1="4020.25" x2="2991.5" y1="270.8867" y2="270.8867"/><line style="stroke:#181818;stroke-width:1.0;" x1="2991.5" x2="2991.5" y1="270.8867" y2="318.4961"/><polygon fill="#181818" points="2987.5,308.4961,2991.5,318.4961,2995.5,308.4961,2991.5,312.4961" style="stroke:#181818;stroke-width:1.0;"/><text fill="#000000" font-family="sans-serif" font-size="11" lengthAdjust="spacing" textLength="21" x="2991.5" y="298.4995">404</text><line style="stroke:#181818;stroke-width:1.0;" x1="4108.25" x2="4779.375" y1="270.8867" y2="270.8867"/><line style="stroke:#181818;stroke-width:1.0;" x1="4779.375" x2="4779.375" y1="270.8867" y2="318.4961"/><polygon fill="#181818" points="4775.375,308.4961,4779.375,318.4961,4783.375,308.4961,4779.375,312.4961" style="stroke:#181818;stroke-width:1.0;"/><text fill="#000000" font-family="sans-serif" font-size="11" lengthAdjust="spacing" textLength="80" x="4779.375" y="298.4995">home, default</text><line style="stroke:#181818;stroke-width:1.0;" x1="2411.375" x2="1153.5" y1="236.8867" y2="236.8867"/><line style="stroke:#181818;stroke-width:1.0;" x1="1153.5" x2="1153.5" y1="236.8867" y2="258.8867"/><polygon fill="#181818" points="1149.5,248.8867,1153.5,258.8867,1157.5,248.8867,1153.5,252.8867" style="stroke:#181818;stroke-width:1.0;"/><line style="stroke:#181818;stroke-width:1.0;" x1="2786.375" x2="4064.25" y1="236.8867" y2="236.8867"/><line style="stroke:#181818;stroke-width:1.0;" x1="4064.25" x2="4064.25" y1="236.8867" y2="258.8867"/><polygon fill="#181818" points="4060.25,248.8867,4064.25,258.8867,4068.25,248.8867,4064.25,252.8867" style="stroke:#181818;stroke-width:1.0;"/><!--SRC=[rLRBRjim4BpxAnQvs04CfuUSuaE0dbkqGFe3At4b4PP8XQHiwE-xA-eLFmeZZHlKW2sPZzsPMUv8Fg0BYuNEOFNwV0-X80Ehblpz0k39aTAEqW31WchIdNnpkqbjjULf7sozeD8Jh8ozNv1HEekHCkryW1f30PxoYam0p08vID3J6WnMfC3HQqC-aFg69WVjvNACm1zqI0jOrPZJhxQcPnbCKL8-VdcKFm1TGf9blgbhwqczoDNraJta58Bc51YW96HWrX3OtL4g-Jnv2h175oED4NvaFpd_TbWKg2oXyKpdxa2Wh5a6A71F78zJfDO48QpDMuPtmtx1Um5fWVxjfZCO1MMJvxm4Xl88EQvGHoixmYuZ7QvwHg6lNRoTAZWcc1YE1FkeR-5jRuQfEqlNepkHVuhwrt9V9bVOYeJ2IQstiyqpLkVOl4ljwo2TrVuoj4do_YxscKHSWw8Ccp94t4yF3mTQik9OEaBLGbfGkkEMrb9NWWZ00xVe1bwqIVbVM7emDiZOEbQg8ZIUAIyTIMlAnjIwpcxg4bFn2HkAdfUo4NWFcI56QvZvpx-tYpySBJIARMwlSmpMRKeUQqGKEN5sJwx4-dnhpnstSz7E73-uXz6q4l8Ktt_Up-yK_Rfk6glnOSrzHHa-kT4xhSbxRSqB0vHq0mnINrl9ynsvbVJfapkId_gyaw10DNf6GcHcqI1fePp5WypPgcC9ISD1q3HObctVuh8UqzswLpHXe-3m_5C1pnSiRHoPYtQS07FKPdoed_6QcMx7fRr1vykhnvLQty8kZ1tWoVOHDX_QwRYgMCNneRIHwHGD7D2PE3Uabfh5wcERS2jR3f_uu1gknNxkCsTrl-GT_Tta_iDBfop_3G00]--></g></svg>
