<svg xmlns="http://www.w3.org/2000/svg" viewBox="0 0 800 1200">
  <!-- upper_leg_R - auto-generated from reference image -->
  <g transform="translate(202.27, 0) scale(1.3636)">
    <g transform="translate(0.000000,876.000000) scale(0.100000,-0.100000)">
      <path d="M1344 2953 c-84 -42 -82 -186 3 -227 116 -55 223 59 167 177 -29 60
-106 82 -170 50z" fill="#f0ddd0"/>
      <path d="M1344 2463 c-56 -28 -64 -62 -64 -263 0 -204 8 -236 67 -264 73 -35
141 -9 174 68 21 48 21 61 16 213 -8 184 -18 220 -74 247 -42 20 -78 20 -119
-1z" fill="#f0ddd0"/>
    </g>
  </g>
</svg>
