<svg width="128" height="128" viewBox="0 0 128 128" fill="none" xmlns="http://www.w3.org/2000/svg">
<rect width="128" height="128" fill="white"/>
<rect x="16.5" y="16.5" width="45" height="20" stroke="black"/>
<rect x="7.5" y="53.5" width="20" height="20" stroke="black"/>
<rect x="50.5" y="53.5" width="20" height="20" stroke="black"/>
<rect x="93.5" y="53.5" width="20" height="20" stroke="black"/>
<rect x="50.5" y="99.5" width="20" height="20" stroke="black"/>
<rect x="93.5" y="99.5" width="20" height="20" stroke="black"/>
<rect x="71.5" y="16.5" width="45" height="20" stroke="black"/>
<path d="M12.0055 53.8953C11.9477 54.4446 12.3461 54.9367 12.8953 54.9945L21.8459 55.9367C22.3951 55.9945 22.8872 55.5961 22.9451 55.0468C23.0029 54.4976 22.6045 54.0055 22.0552 53.9477L14.0992 53.1102L14.9367 45.1541C14.9945 44.6049 14.5961 44.1128 14.0468 44.0549C13.4976 43.9971 13.0055 44.3955 12.9477 44.9448L12.0055 53.8953ZM34 37L33.3708 36.2228L12.3708 53.2228L13 54L13.6292 54.7772L34.6292 37.7772L34 37Z" fill="black"/>
<path d="M57.6154 54.9231C58.1252 55.1355 58.7107 54.8944 58.9231 54.3846L62.3846 46.0769C62.597 45.5671 62.356 44.9816 61.8462 44.7692C61.3364 44.5568 60.7509 44.7979 60.5385 45.3077L57.4615 52.6923L50.0769 49.6154C49.5671 49.403 48.9816 49.644 48.7692 50.1538C48.5568 50.6636 48.7979 51.2491 49.3077 51.4615L57.6154 54.9231ZM51 37L50.0753 37.3807L57.0753 54.3808L58 54L58.9247 53.6193L51.9247 36.6193L51 37Z" fill="black"/>
<path d="M103.253 54.6644C103.62 55.0771 104.252 55.1143 104.664 54.7474L111.391 48.7681C111.804 48.4012 111.841 47.7691 111.474 47.3564C111.107 46.9436 110.475 46.9064 110.062 47.2733L104.083 52.5882L98.7681 46.609C98.4012 46.1962 97.7691 46.159 97.3564 46.5259C96.9436 46.8928 96.9064 47.5249 97.2733 47.9377L103.253 54.6644ZM105 37L104.002 36.9413L103.002 53.9413L104 54L104.998 54.0587L105.998 37.0587L105 37Z" fill="black"/>
<path d="M58.0433 97.7088C57.8825 98.2372 58.1805 98.7959 58.7088 98.9567L67.3189 101.577C67.8473 101.738 68.4059 101.44 68.5667 100.912C68.7275 100.383 68.4296 99.8246 67.9012 99.6638L60.2478 97.3345L62.5771 89.6811C62.7379 89.1527 62.44 88.5941 61.9116 88.4333C61.3833 88.2725 60.8246 88.5704 60.6638 89.0988L58.0433 97.7088ZM104 74L103.529 73.1176L58.5294 97.1176L59 98L59.4706 98.8824L104.471 74.8824L104 74Z" fill="black"/>
<path d="M103.293 100.707C103.683 101.098 104.317 101.098 104.707 100.707L111.071 94.3431C111.462 93.9526 111.462 93.3195 111.071 92.9289C110.681 92.5384 110.047 92.5384 109.657 92.9289L104 98.5858L98.3431 92.9289C97.9526 92.5384 97.3195 92.5384 96.9289 92.9289C96.5384 93.3195 96.5384 93.9526 96.9289 94.3431L103.293 100.707ZM104 74H103V100H104H105V74H104Z" fill="black"/>
</svg>
